<svg xmlns="http://www.w3.org/2000/svg" xml:space="preserve" viewBox="0 0 256 256">
    <style>
    @media (prefers-color-scheme: dark) {
      path {
        fill: white;
      }
    }
    </style>
    <path d="M235.022 155.448c1.344.346 2.462 1.199 3.113 2.379.651 1.181.86 2.592.431 3.886-17.891 58.624-79.107 93.318-139.047 77.859C37.877 223.674.786 160.75 16.677 99.135c15.459-59.94 75.396-96.712 135.385-84.04 1.356.302 2.486 1.11 3.146 2.254a4.85 4.85 0 0 1 .629 3.86L142.712 72.1c-7.947 30.813 10.599 62.275 41.419 70.224Zm-3.808 6.242-48.83-12.594c-34.583-8.919-55.392-44.204-46.482-78.752l12.594-48.83C92.939 10.922 37.826 45.288 23.486 100.89 8.56 158.77 43.39 217.862 101.268 232.79c55.639 14.349 112.345-17.303 129.946-71.1"/>
    <path d="M146.833 48.795a3.5 3.5 0 0 1-2.815-4.07 3.5 3.5 0 0 1 4.071-2.815l19.459 3.548c5.976 1.09 9.938 6.816 8.848 12.793l-3.086 16.926a4 4 0 0 0 3.218 4.653l11.635 2.122c5.976 1.09 9.938 6.818 8.848 12.795l-3.651 20.024a4 4 0 0 0 3.218 4.653l13.064 2.382c5.977 1.09 9.937 6.818 8.847 12.794l-3.038 16.665a3.5 3.5 0 0 1-6.886-1.255l3.039-16.665a4 4 0 0 0-3.217-4.653l-13.064-2.382c-5.977-1.09-9.938-6.818-8.848-12.795l3.651-20.024a4 4 0 0 0-3.219-4.653l-11.634-2.122c-5.977-1.09-9.938-6.818-8.849-12.794l3.087-16.926a4 4 0 0 0-3.219-4.653ZM87.226 119.865l-14.11-2.656c-7.562-1.424-12.545-8.703-11.118-16.283l2.653-14.088c1.427-7.579 8.716-12.547 16.278-11.123l14.11 2.657c7.562 1.424 12.545 8.703 11.118 16.282l-2.653 14.088c-1.427 7.579-8.716 12.547-16.278 11.123M84.332 190.026l-10.507-1.979a10.377 10.377 0 0 1-8.28-12.124l1.976-10.491c1.063-5.644 6.491-9.344 12.122-8.283l10.507 1.978c5.631 1.06 9.342 6.481 8.279 12.125l-1.975 10.491a10.38 10.38 0 0 1-12.122 8.283M151.047 185.739l-8.176-1.539a8.075 8.075 0 0 1-6.442-9.435l1.537-8.163a8.076 8.076 0 0 1 9.433-6.446l8.175 1.54a8.075 8.075 0 0 1 6.443 9.434l-1.537 8.164a8.075 8.075 0 0 1-9.433 6.445"/>
</svg>