<svg width="16" height="16" viewBox="0 0 16 16" version="1.1" xmlns="http://www.w3.org/2000/svg" xmlns:xlink="http://www.w3.org/1999/xlink" xml:space="preserve" xmlns:serif="http://www.serif.com/" style="fill-rule:evenodd;clip-rule:evenodd;stroke-linejoin:round;stroke-miterlimit:2;">
    <path d="M4.75,0C5.161,-0 5.5,0.339 5.5,0.75L5.5,2L10.5,2L10.5,0.75C10.5,0.339 10.839,0 11.25,0C11.661,-0 12,0.339 12,0.75L12,2L13.25,2C14.216,2 15,2.784 15,3.75L15,14.25C15,15.21 14.21,16 13.25,16L2.75,16C1.79,16 1,15.21 1,14.25L1,3.75C1,2.784 1.784,2 2.75,2L4,2L4,0.75C4,0.339 4.339,0 4.75,0ZM13.5,14.25L13.5,3.75C13.5,3.613 13.387,3.5 13.25,3.5L2.75,3.5C2.613,3.5 2.5,3.613 2.5,3.75L2.5,14.25C2.5,14.388 2.612,14.5 2.75,14.5L13.25,14.5C13.387,14.5 13.5,14.387 13.5,14.25Z"/>
    <g transform="matrix(1.11169,0,0,1.11169,-2.58934,0.814109)">
        <g transform="matrix(9.89487,0,0,9.89487,6.22798,10.9178)">
            <path d="M0.547,-0L0.42,-0L0.42,-0.076C0.399,-0.047 0.374,-0.024 0.345,-0.01C0.316,0.004 0.287,0.012 0.258,0.012C0.198,0.012 0.147,-0.012 0.105,-0.06C0.062,-0.108 0.041,-0.175 0.041,-0.261C0.041,-0.349 0.062,-0.416 0.103,-0.462C0.144,-0.507 0.197,-0.53 0.26,-0.53C0.318,-0.53 0.368,-0.506 0.41,-0.458L0.41,-0.716L0.547,-0.716L0.547,-0ZM0.181,-0.271C0.181,-0.215 0.189,-0.175 0.204,-0.15C0.226,-0.115 0.257,-0.097 0.297,-0.097C0.328,-0.097 0.355,-0.11 0.377,-0.137C0.4,-0.164 0.411,-0.204 0.411,-0.257C0.411,-0.317 0.4,-0.36 0.378,-0.386C0.357,-0.412 0.329,-0.425 0.296,-0.425C0.263,-0.425 0.236,-0.412 0.214,-0.386C0.192,-0.361 0.181,-0.322 0.181,-0.271Z" style="fill-rule:nonzero;"/>
        </g>
    </g>
</svg>
