<svg width="16" height="16" viewBox="0 0 16 16" version="1.1" xmlns="http://www.w3.org/2000/svg" xmlns:xlink="http://www.w3.org/1999/xlink" xml:space="preserve" xmlns:serif="http://www.serif.com/" style="fill-rule:evenodd;clip-rule:evenodd;stroke-linejoin:round;stroke-miterlimit:2;">
    <path d="M4.75,0C5.161,-0 5.5,0.339 5.5,0.75L5.5,2L10.5,2L10.5,0.75C10.5,0.339 10.839,0 11.25,0C11.661,-0 12,0.339 12,0.75L12,2L13.25,2C14.216,2 15,2.784 15,3.75L15,14.25C15,15.21 14.21,16 13.25,16L2.75,16C1.79,16 1,15.21 1,14.25L1,3.75C1,2.784 1.784,2 2.75,2L4,2L4,0.75C4,0.339 4.339,0 4.75,0ZM13.5,14.25L13.5,3.75C13.5,3.613 13.387,3.5 13.25,3.5L2.75,3.5C2.613,3.5 2.5,3.613 2.5,3.75L2.5,14.25C2.5,14.388 2.612,14.5 2.75,14.5L13.25,14.5C13.387,14.5 13.5,14.387 13.5,14.25Z"/>
    <g transform="matrix(1.11169,0,0,1.11169,-3.79515,0.80667)">
        <g transform="matrix(9.89487,0,0,9.89487,6.22798,10.9178)">
            <path d="M0.062,-0.519L0.188,-0.519L0.188,-0.448C0.233,-0.503 0.287,-0.53 0.35,-0.53C0.383,-0.53 0.412,-0.523 0.436,-0.51C0.46,-0.496 0.48,-0.475 0.496,-0.448C0.519,-0.475 0.543,-0.496 0.57,-0.51C0.596,-0.523 0.624,-0.53 0.654,-0.53C0.692,-0.53 0.725,-0.523 0.751,-0.507C0.777,-0.492 0.797,-0.469 0.81,-0.439C0.819,-0.417 0.824,-0.381 0.824,-0.332L0.824,-0L0.687,-0L0.687,-0.296C0.687,-0.348 0.682,-0.381 0.673,-0.396C0.66,-0.416 0.641,-0.425 0.614,-0.425C0.595,-0.425 0.577,-0.419 0.56,-0.408C0.543,-0.396 0.531,-0.379 0.523,-0.356C0.516,-0.334 0.512,-0.298 0.512,-0.249L0.512,-0L0.375,-0L0.375,-0.284C0.375,-0.335 0.373,-0.367 0.368,-0.382C0.363,-0.396 0.355,-0.407 0.345,-0.415C0.335,-0.422 0.321,-0.425 0.303,-0.425C0.282,-0.425 0.263,-0.42 0.246,-0.408C0.229,-0.397 0.217,-0.38 0.21,-0.359C0.202,-0.337 0.199,-0.302 0.199,-0.252L0.199,-0L0.062,-0L0.062,-0.519Z" style="fill-rule:nonzero;"/>
        </g>
    </g>
</svg>
