<svg xmlns="http://www.w3.org/2000/svg" width="16" height="16" xml:space="preserve" style="fill-rule:evenodd;clip-rule:evenodd;stroke-linejoin:round;stroke-miterlimit:2" viewBox="0 0 16 16"><path d="M4.75 0c.411 0 .75.339.75.75V2h5V.75c0-.411.339-.75.75-.75s.75.339.75.75V2h1.25c.966 0 1.75.784 1.75 1.75v10.5c0 .96-.79 1.75-1.75 1.75H2.75C1.79 16 1 15.21 1 14.25V3.75C1 2.784 1.784 2 2.75 2H4V.75c0-.411.339-.75.75-.75m8.75 14.25V3.75a.25.25 0 0 0-.25-.25H2.75a.25.25 0 0 0-.25.25v10.5c0 .138.112.25.25.25h10.5c.137 0 .25-.113.25-.25"/><path d="M.174 0 .003-.716h.148l.108.492.131-.492h.172l.126.5.109-.5h.146L.769 0H.616L.473-.535.331 0z" style="fill-rule:nonzero" transform="matrix(9.94444 0 0 9.94444 3.295 12.444)"/></svg>
