<svg width="16" height="16" viewBox="0 0 16 16" version="1.1" xmlns="http://www.w3.org/2000/svg" xmlns:xlink="http://www.w3.org/1999/xlink" xml:space="preserve" xmlns:serif="http://www.serif.com/" style="fill-rule:evenodd;clip-rule:evenodd;stroke-linejoin:round;stroke-miterlimit:2;">
    <path d="M4.75,0C5.161,-0 5.5,0.339 5.5,0.75L5.5,2L10.5,2L10.5,0.75C10.5,0.339 10.839,0 11.25,0C11.661,-0 12,0.339 12,0.75L12,2L13.25,2C14.216,2 15,2.784 15,3.75L15,14.25C15,15.21 14.21,16 13.25,16L2.75,16C1.79,16 1,15.21 1,14.25L1,3.75C1,2.784 1.784,2 2.75,2L4,2L4,0.75C4,0.339 4.339,0 4.75,0ZM13.5,14.25L13.5,3.75C13.5,3.613 13.387,3.5 13.25,3.5L2.75,3.5C2.613,3.5 2.5,3.613 2.5,3.75L2.5,14.25C2.5,14.388 2.612,14.5 2.75,14.5L13.25,14.5C13.387,14.5 13.5,14.387 13.5,14.25Z"/>
    <g transform="matrix(1.11169,0,0,1.11169,-2.58934,0.814109)">
        <g transform="matrix(9.89487,0,0,9.89487,6.22798,10.9178)">
            <path d="M0.261,-0L0.261,-0.301L-0.001,-0.716L0.168,-0.716L0.336,-0.433L0.501,-0.716L0.668,-0.716L0.405,-0.3L0.405,-0L0.261,-0Z" style="fill-rule:nonzero;"/>
        </g>
    </g>
</svg>
